<svg height="32" width="145" xmlns="http://www.w3.org/2000/svg">
  <path d="M.753 8.659c0 1.13-.063 2.321-.377 3.2h3.2c-.25-.816-.313-1.82-.313-3.075v-4.33c.376-.376.94-.564 1.694-.564.941 0 1.318.377 1.318 1.255V8.66c0 1.255-.063 2.259-.314 3.074h3.2c-.314-.878-.377-2.07-.377-3.2V4.894c0-1.882-.627-2.823-2.572-2.823-1.506 0-2.573.94-3.012 2.133V2.07h-.063L0 2.949c.376.44.753 1.255.753 2.196zM12.36 6.902c-1.443.565-2.824 1.255-2.824 2.76 0 1.444 1.004 2.385 2.51 2.385 1.255 0 2.07-.565 2.447-1.757h.063c.063.879.627 1.757 1.882 1.757 1.067 0 1.569-.502 1.82-1.318.063-.188.125-.313.125-.627a1.477 1.477 0 01-.502.125c-.627 0-.878-.188-.878-1.003V5.02c0-2.008-.879-3.012-3.388-3.012-1.883 0-3.765.878-3.765 2.259 0 .69.502 1.066 1.067 1.066.627 0 1.004-.313 1.192-1.255.125-.627.376-.878 1.004-.878 1.004 0 1.317.565 1.317 1.631v.189c0 1.004-.69 1.317-2.07 1.882zm2.07 3.074c-.188.377-.439.628-1.129.628-.753 0-1.192-.565-1.192-1.38 0-1.004.314-1.506 1.255-1.946.753-.313.94-.502 1.13-.815zm4.455-.752c0 1.82.753 2.76 2.698 2.76 1.13 0 1.945-.502 2.322-1.255.125-.313.125-.439.188-.815-.314.125-.69.25-1.38.25-.879 0-1.318-.376-1.318-1.38V3.576h2.196l.251-1.317h-2.447V0h-.063l-3.45 3.514v.062h.94v5.648zm5.836-.314c0 1.882.753 3.137 2.823 3.137 1.631 0 2.447-.878 2.824-2.07h.062v1.882h2.824c-.188-.753-.377-1.38-.377-2.824V2.196l-2.886.314c.314.878.377 1.694.377 2.635V9.6c-.377.44-.942.753-1.757.753-.941 0-1.318-.565-1.318-1.569V2.196l-2.949.314c.314.878.377 1.694.377 2.635zm9.788-.251c0 1.13-.063 2.321-.377 3.2h3.2c-.188-.879-.313-2.07-.313-3.263V6.15c0-1.506.564-2.322 1.066-2.322.189 0 .377.189.565.377.188.188.44.376.878.376.816 0 1.193-.564 1.193-1.317 0-.816-.502-1.318-1.506-1.318-1.067 0-1.883.69-2.322 2.447h-.063V2.071h-.062l-3.138.878c.377.44.753 1.255.753 2.196V8.66zm10.478 3.388c2.134 0 3.263-1.318 3.702-2.76l-.063-.126c-.439.439-1.129 1.066-2.635 1.066-1.694 0-2.949-.94-2.949-3.325v-.314h5.647c0-2.949-1.13-4.517-3.639-4.517-2.573 0-4.518 2.07-4.518 5.27 0 3.075 2.008 4.706 4.455 4.706zm0-8.847c1.067 0 1.318.878 1.318 2.447l-3.2.314c.125-1.945.816-2.761 1.882-2.761zM8.345 22.463c0-2.95-1.13-4.518-3.64-4.518-2.572 0-4.517 2.07-4.517 5.27 0 3.075 2.008 4.707 4.455 4.707 2.133 0 3.263-1.318 3.702-2.761l-.063-.126c-.439.44-1.13 1.067-2.635 1.067-1.694 0-2.949-.941-2.949-3.326v-.313zm-3.702-3.388c1.067 0 1.318.878 1.318 2.447l-3.2.313c.188-1.882.815-2.76 1.882-2.76zm9.6 6.964c-1.631 0-2.698-1.004-2.698-3.514 0-2.133.753-3.45 2.008-3.45.627 0 .878.125.941.815.126.816.44 1.255 1.067 1.255.753 0 1.13-.44 1.13-1.192 0-1.004-.88-2.008-3.075-2.008-2.322 0-4.643 1.82-4.643 5.208 0 3.012 1.756 4.831 4.266 4.831 2.196 0 3.263-1.506 3.514-2.635l-.063-.125c-.439.501-1.443.815-2.447.815zm7.592-8.094c-2.384 0-4.643 1.882-4.643 5.02 0 3.2 2.322 4.957 4.769 4.957 2.384 0 4.643-1.883 4.643-5.02s-2.322-4.957-4.769-4.957zm.126 8.847c-1.255 0-2.008-.753-2.008-3.89 0-2.95.69-3.765 1.82-3.765 1.254 0 2.007.753 2.007 3.89.063 2.887-.627 3.765-1.82 3.765zm8.282-10.102c0-.439 0-1.882.063-2.76h-.063l-3.263.878c.377.44.753 1.255.753 2.196v7.53c0 1.129-.062 2.32-.376 3.2h3.263c-.314-.88-.377-2.071-.377-3.2zm5.773 1.255c-2.385 0-4.643 1.882-4.643 5.02 0 3.2 2.321 4.957 4.768 4.957 2.384 0 4.643-1.883 4.643-5.02-.062-3.137-2.384-4.957-4.768-4.957zm.125 8.847c-1.255 0-2.008-.753-2.008-3.89 0-2.95.69-3.765 1.82-3.765 1.255 0 2.008.753 2.008 3.89 0 2.887-.69 3.765-1.82 3.765zm20.832-6.274l-1.318 3.953h-.063l-1.317-3.89c-.377-1.067-.565-1.695-.44-2.448h-2.949c-.188-.376-.627-.627-1.255-.627-.564 0-1.38.376-1.882 1.255h-.063c-.69-.565-1.694-.816-2.635-.816-2.07 0-3.89 1.192-3.89 3.451 0 1.318.815 2.259 1.882 2.698v.063c-.941.25-1.631.878-1.631 1.882s.815 1.757 1.757 1.945v.063c-1.318.188-2.447.628-2.447 1.506 0 1.004 1.254 1.82 4.329 1.82 3.263 0 5.333-1.255 5.333-3.577 0-1.506-.94-2.196-2.51-2.196-1.129 0-2.823.125-4.015.125-.628 0-.879-.313-.879-.627s.126-.565.377-.753c.502.126 1.067.251 1.631.251 2.07 0 3.89-1.192 3.89-3.45 0-.754-.313-1.507-.878-2.134.125-.063.314-.126.44-.126.376 0 .501.189.627.377s.376.439.878.439c.44 0 .753-.251.879-.627.188.439.439 1.066.752 1.756l2.573 6.589c-.376 1.255-1.067 2.321-1.631 2.321-.377 0-.565-.439-1.13-.439s-1.004.376-1.004 1.004c0 .69.502 1.13 1.38 1.13 1.758 0 2.95-1.444 4.267-5.02l2.008-5.46c.44-1.254.879-2.07 1.318-2.823H56.91c.439.753.376 1.506.063 2.385zm-13.365 7.717c.44-.062 2.76-.125 3.827-.125.753 0 1.13.188 1.13.815 0 .816-1.004 1.57-3.451 1.57-1.569 0-2.26-.503-2.26-1.256.064-.564.315-.941.754-1.004zm1.568-4.768c-.878 0-1.568-.753-1.568-2.134 0-1.631.565-2.258 1.506-2.258.878 0 1.568.752 1.568 2.133-.062 1.631-.564 2.259-1.506 2.259zm26.98-2.573h-1.63c-.126 1.318-.126 2.322-.44 3.2-1.004-1.38-2.008-2.823-2.76-3.89 1.694-.69 2.886-1.631 2.886-3.075 0-1.38-.879-2.384-2.95-2.384-2.195 0-3.513 1.569-3.513 3.388 0 .879.251 1.757.878 2.761-1.505.69-3.011 1.757-3.011 3.514 0 1.945 1.066 3.514 3.827 3.514 1.569 0 2.447-.69 3.137-1.506.314.439.69.878 1.004 1.255h3.389c-1.318-1.506-1.883-2.26-2.51-3.075.69-.753 1.192-1.694 1.694-3.702zm-4.893-5.082c.753 0 1.13.376 1.13 1.506s-.126 1.882-1.444 2.51c-.502-.753-.878-1.57-.878-2.448.062-1.004.376-1.568 1.192-1.568zm-.941 10.666c-1.506 0-2.197-1.38-2.197-2.698 0-1.255.314-1.882.816-2.447.879 1.38 2.07 3.075 3.263 4.643-.502.251-1.067.502-1.882.502zm17.066-4.015c0-2.95-1.13-4.518-3.639-4.518-2.573 0-4.518 2.07-4.518 5.27 0 3.075 2.008 4.707 4.455 4.707 2.134 0 3.263-1.318 3.702-2.761l-.063-.126c-.439.44-1.129 1.067-2.635 1.067-1.694 0-2.949-.941-2.949-3.326v-.313zm-3.764-3.388c1.066 0 1.317.878 1.317 2.447l-3.2.313c.188-1.882.879-2.76 1.883-2.76zm10.29-.942c.313.753.125 1.632-.251 2.698l-1.192 3.2-1.255-3.2c-.44-1.129-.565-1.882-.502-2.698H83.2c.502.816.878 1.632 1.38 2.887l2.761 6.776h.879l2.698-6.776c.439-1.13 1.004-2.196 1.38-2.887zm6.462-.188c-2.384 0-4.643 1.882-4.643 5.02 0 3.2 2.322 4.957 4.769 4.957 2.384 0 4.643-1.883 4.643-5.02s-2.321-4.957-4.769-4.957zm.189 8.847c-1.255 0-2.008-.753-2.008-3.89 0-2.95.69-3.765 1.82-3.765 1.254 0 2.007.753 2.007 3.89 0 2.887-.627 3.765-1.82 3.765zm8.282-10.102c0-.439 0-1.882.063-2.76h-.063l-3.325.878c.376.44.753 1.255.753 2.196v7.53c0 1.129-.063 2.32-.377 3.2h3.263c-.314-.88-.377-2.071-.377-3.2V16.69zm9.663 1.38l-2.95.314c.315.879.377 1.694.377 2.636v4.455c-.376.439-.94.752-1.757.752-.94 0-1.317-.564-1.317-1.568V18.07l-2.95.313c.314.879.377 1.694.377 2.636v3.764c0 1.883.753 3.138 2.824 3.138 1.631 0 2.447-.879 2.823-2.071H112v1.882h2.824c-.189-.753-.377-1.38-.377-2.823zm4.078 6.652v-5.208h2.196l.251-1.318h-2.447v-2.259l-3.45 3.514v.063h.94v5.647c0 1.82.753 2.76 2.698 2.76 1.13 0 1.946-.501 2.322-1.254.126-.314.126-.44.188-.816-.313.125-.69.251-1.38.251-.879.063-1.318-.377-1.318-1.38zm4.58-7.342c.88 0 1.57-.69 1.57-1.505 0-.879-.628-1.506-1.57-1.506-.94 0-1.568.69-1.568 1.506s.69 1.505 1.569 1.505zm1.381 3.012l.063-2.384h-.063l-3.325.878c.376.44.752 1.255.752 2.196v3.451c0 1.13-.062 2.322-.376 3.2h3.263c-.314-.878-.377-2.07-.377-3.2v-4.14zm5.71-2.447c-2.384 0-4.643 1.882-4.643 5.02 0 3.2 2.321 4.957 4.768 4.957 2.385 0 4.643-1.883 4.643-5.02s-2.384-4.957-4.768-4.957zm.125 8.847c-1.255 0-2.008-.753-2.008-3.89 0-2.95.69-3.765 1.82-3.765 1.255 0 2.008.753 2.008 3.89.063 2.887-.628 3.765-1.82 3.765zm10.98.941h3.2c-.313-.878-.376-2.07-.376-3.2v-3.702c0-1.882-.627-2.823-2.572-2.823-1.506 0-2.573.941-3.012 2.133h-.063v-2.07h-.063l-3.137.878c.377.44.753 1.255.753 2.196v3.388c0 1.13-.063 2.322-.376 3.2h3.2c-.251-.815-.314-1.82-.314-3.074v-4.267c.376-.376.941-.565 1.694-.565.941 0 1.318.377 1.318 1.255v3.514c0 1.318 0 2.322-.251 3.137z"/>
</svg>
